PathFileType	4	(X/Y/Z)	D:\Research_projects\MuscleProsody\BulkSports2Dtrack\RetrackedSports2D\p1_sample60_cam3\p1_sample60_cam3_Sports2D\p1_sample60_cam3_Sports2D_m_person00.trc
DataRate	CameraRate	NumFrames	NumMarkers	Units	OrigDataRate	OrigDataStartFrame	OrigNumFrames
60	60	10	22	m	60	195	780
Frame#	Time	Hip			RHip			RKnee			RAnkle			RBigToe			RSmallToe			RHeel			LHip			LKnee			LAnkle			LBigToe			LSmallToe			LHeel			Neck			Head			Nose			RShoulder			RElbow			RWrist			LShoulder			LElbow			LWrist		
		X1	Y1	Z1	X2	Y2	Z2	X3	Y3	Z3	X4	Y4	Z4	X5	Y5	Z5	X6	Y6	Z6	X7	Y7	Z7	X8	Y8	Z8	X9	Y9	Z9	X10	Y10	Z10	X11	Y11	Z11	X12	Y12	Z12	X13	Y13	Z13	X14	Y14	Z14	X15	Y15	Z15	X16	Y16	Z16	X17	Y17	Z17	X18	Y18	Z18	X19	Y19	Z19	X20	Y20	Z20	X21	Y21	Z21	X22	Y22	Z22
195	3.25	0.4159028150368577	0.9677482955430037	0.0301	0.3452556218339742	0.9008474630917365	0.0301	0.5391210087980552	0.5251554106675338	0.129	0.7183874738266954	0.20239314736375738	0.023	0.6936798738701657	0.032482731702636124	0.2179	0.6492225711960993	0.0496624317737368	0.1804	0.7777028324180568	0.1900326397666915	-0.0119	0.5207333656965804	0.9847963000506337	0.0301	0.7052962250585141	0.5896088377266671	0.129	0.8980756608161479	0.22479794242560056	0.023	0.8492898830584032	0.03922359465209844	0.2179	0.9189212151260865	0.07016072172292785	0.1804	0.9393967483079779	0.1993836404800965	-0.0119	0.11526913691121979	1.4928853482009607	0.0008	-0.09957270007393874	1.6798392032103997	0.0655	-0.06692083290454852	1.524752715039443	0.1076	-0.008663638106641723	1.3950779312347386	-0.01275	-0.2678476818348394	1.4011610517571629	0.0702	-0.4000383803696082	1.6586845301636943	0.1076	0.2864680921116196	1.5548009509074456	-0.01275	0.28510662148277854	1.7848886101104382	0.0702	0.041686173751479504	1.9880617856701261	0.1076
196	3.2666666666666666	0.4109311264331371	0.9791377728967496	0.0301	0.34116401076133734	0.9106527805851584	0.0301	0.5365682230276577	0.5355440550073582	0.129	0.7127009298072612	0.21009926680865224	0.023	0.6889083998041668	0.03688035413480691	0.2179	0.6440538463704795	0.054218690244081075	0.1804	0.7716346391686899	0.19789602818322571	-0.0119	0.516868561417478	0.9951773884596757	0.0301	0.7058857564370324	0.599212224746125	0.129	0.8957727322006124	0.23041308988716844	0.023	0.8458305495948562	0.041579395119402104	0.2179	0.9149543201052047	0.07168414816045657	0.1804	0.9367743322651512	0.20423085592516563	-0.0119	0.10974663724621563	1.505385906677746	0.0008	-0.1047929816902505	1.6906278502974013	0.0655	-0.07140034937573782	1.5355921378598345	0.1076	-0.01434772812892453	1.4072411243355336	-0.01275	-0.2737016711993328	1.4155696240352196	0.0702	-0.403716485418834	1.6761324796858446	0.1076	0.28051189780147573	1.5674543083943464	-0.01275	0.2745049719958341	1.7984927830835515	0.0702	0.02862367715139825	1.9995826154783278	0.1076
197	3.283333333333333	0.4081182361191365	0.9861944576273252	0.0301	0.3390937891981099	0.9165346625931116	0.0301	0.5350353691807131	0.5420356245114926	0.129	0.7085395378521062	0.2150351581910364	0.023	0.6851820494392461	0.03955027742106519	0.2179	0.6401453589105802	0.0569455274714722	0.1804	0.7669820634304169	0.20296420086050276	-0.0119	0.5149986648659962	1.0012637070363124	0.0301	0.7068631351263367	0.6046436168205443	0.129	0.8945084206727822	0.23338020346168512	0.023	0.8433958617162215	0.04251290250504355	0.2179	0.9120747554833458	0.07173880820629504	0.1804	0.9354321943171169	0.20672478643288866	-0.0119	0.10627728385384162	1.5132767137322882	0.0008	-0.10795490634178001	1.6968856311084222	0.0655	-0.07393044866087142	1.541882552033137	0.1076	-0.01753899150308226	1.4147632865616966	-0.01275	-0.27696171084921317	1.4234442172466282	0.0702	-0.4040836550705442	1.6863800569407494	0.1076	0.2767826980262958	1.5749335457136677	-0.01275	0.26858111470250523	1.8043160717261213	0.0702	0.01922109762807286	2.0029344650575904	0.1076
198	3.3	0.40745582024268534	0.9888260179225424	0.0301	0.3390056635708342	0.9184619554202551	0.0301	0.5346680429551788	0.5445207402964602	0.129	0.706125980596941	0.21677369788982095	0.023	0.682697819057631	0.04018861999160991	0.2179	0.6376911377849493	0.05752138818123817	0.1804	0.7639822413351556	0.20479116474350342	-0.0119	0.5150424316901274	1.0030333426726485	0.0301	0.7083319100480775	0.6058660838818193	0.129	0.8943030940006877	0.2334470553277142	0.023	0.8421195949636568	0.04188151000102438	0.2179	0.9104060299467697	0.07020374915604205	0.1804	0.9353576254790799	0.20655959794212186	-0.0119	0.10493194836599504	1.5164167965477273	0.0008	-0.10900026401844312	1.6985448082598182	0.0655	-0.0744447249836014	1.5436260731833356	0.1076	-0.018179624668142397	1.4176147428715558	-0.01275	-0.27784137340911047	1.4250099712304585	0.0702	-0.4015464900100912	1.6897365056910703	0.1076	0.27529920134943164	1.5771459744532723	-0.01275	0.2671857217615263	1.8024581534272424	0.0702	0.01337643102948682	1.9984646325191155	0.1076
199	3.3166666666666664	0.408902881472827	0.9870957787842006	0.0301	0.34081429436056077	0.9165389242233342	0.0301	0.5355226700777678	0.5430708697158038	0.129	0.7055998350084162	0.2151576993959135	0.023	0.6815385766235623	0.03870276149614074	0.2179	0.6367929639561052	0.05586200754637498	0.1804	0.7628125617237862	0.20320661085527067	-0.0119	0.5168911377700757	1.0006202571182075	0.0301	0.7103154613740814	0.6030411712751088	0.129	0.8951213264802578	0.23058414227378057	0.023	0.842045680575999	0.03966577168569704	0.2179	0.9099862476892877	0.06709575762403512	0.1804	0.9364801729557667	0.20365835313773237	-0.0119	0.1057222150979003	1.51475941948335	0.0008	-0.10800857776541817	1.6956150426476106	0.0655	-0.07296403133693573	1.5408663852399826	0.1076	-0.016288570701702275	1.4158400169011043	-0.01275	-0.27648772444599107	1.420563846992956	0.0702	-0.3964945066223106	1.6865033285459363	0.1076	0.27601769325330905	1.574131873049935	-0.01275	0.2701468816490359	1.7930701635182307	0.0702	0.01106260560245858	1.9865016352771527	0.1076
200	3.3333333333333335	0.4123748880934624	0.9812244294255918	0.0301	0.3443832843744625	0.9110043474396092	0.0301	0.5375629080547927	0.5379296272935473	0.129	0.7069864363775856	0.2103008200380866	0.023	0.6816986815292106	0.03523556934591087	0.2179	0.6374588567828111	0.052129547932877156	0.1804	0.7635596604711988	0.19831295373919466	-0.0119	0.5204077665085454	0.9943111744493449	0.0301	0.7127546129546329	0.5965193538820329	0.129	0.8968774499008982	0.22499098769974413	0.023	0.8431492416151478	0.03598332837286965	0.2179	0.9107841598017309	0.06258307007925165	0.1804	0.9386761194981277	0.19819182899521237	-0.0119	0.10860899993982708	1.5083618018088756	0.0008	-0.10519121980172627	1.6881817051296482	0.0655	-0.06959636596209523	1.5336946513112324	0.1076	-0.011936010930168566	1.4095587581768314	-0.01275	-0.272966516697114	1.4104291079146882	0.0702	-0.3892560727160403	1.6769403768038231	0.1076	0.27883555706675067	1.5660604047536006	-0.01275	0.2772720698690277	1.77635210101857	0.0702	0.012321141774450886	1.967307034364124	0.1076
201	3.35	0.41773928694649803	0.971545917610227	0.0301	0.3495443114974065	0.9021881004552866	0.0301	0.5406827589251114	0.5294778460944292	0.129	0.710194435849353	0.20256851611630078	0.023	0.6831060073514864	0.030137527729283485	0.2179	0.6396121035391261	0.04670389976603489	0.1804	0.766202939117184	0.1904593948979756	-0.0119	0.5254347934961915	0.9845033001040272	0.0301	0.7155338490739135	0.5867927066429903	0.129	0.8994446027949492	0.21707670561393436	0.023	0.8453208468352649	0.03108208856014888	0.2179	0.9126947693850131	0.05697088180207045	0.1804	0.9417971898647343	0.19055738162965638	-0.0119	0.11348013327621771	1.497415640875899	0.0008	-0.10084305433254123	1.6764167311657476	0.0655	-0.06453196711468429	1.5223005184538136	0.1076	-0.005258647481767999	1.3989773528110256	-0.01275	-0.26725729295291784	1.3949266696726241	0.0702	-0.3800660481693243	1.6612334308275498	0.1076	0.2835913891566099	1.5532467758740518	-0.01275	0.28834045720493395	1.752566682043849	0.0702	0.017226170139042735	1.9411098245902636	0.1076
202	3.3666666666666667	0.4248229166985104	0.9584573112070885	0.0301	0.3561339535363699	0.8904534431134661	0.0301	0.5447370439845369	0.5181984682269742	0.129	0.7150274238867553	0.1925416004383527	0.023	0.6856316856744098	0.02389570528065849	0.2179	0.6431055731795398	0.0401213524569592	0.1804	0.7706024110395578	0.18020303641985208	-0.0119	0.5318148129579578	0.971643745418934	0.0301	0.7185163981218172	0.5744284459888979	0.129	0.9026786730914763	0.2074011915710237	0.023	0.848353911857526	0.025307472504508773	0.2179	0.9155302028778664	0.05064890503039574	0.1804	0.9457147691460976	0.1813122180535778	-0.0119	0.12011929074939368	1.4822761798909199	0.0008	-0.09527641585151693	1.660608368040252	0.0655	-0.0580315171358441	1.5070003115710253	0.1076	0.0035071115437223114	1.3843987850509853	-0.01275	-0.2592666400626453	1.3743827471273045	0.0702	-0.3690728134346612	1.6394942493184965	0.1076	0.2900690360793858	1.5361641305033393	-0.01275	0.30309648277390544	1.7220687269132426	0.0702	0.02583625684585933	1.9081632980273349	0.1076
203	3.3833333333333333	0.43341799033848033	0.9424255652394631	0.0301	0.3639965031371904	0.8762023665903427	0.0301	0.5495340088271323	0.5046669658779445	0.129	0.7211900508370516	0.1809602909624381	0.023	0.6890905457722231	0.01706304212045306	0.2179	0.6477273910398875	0.032995901167979465	0.1804	0.7764884908111628	0.16827010634176723	-0.0119	0.5393969304786995	0.9562263735082929	0.0301	0.7215441055477958	0.5600343222182077	0.129	0.9064402788263034	0.19660168242914822	0.023	0.8519829238263149	0.01906327060184704	0.2179	0.9190403566802583	0.044034231907535915	0.1804	0.9503306345347333	0.17110414548566263	-0.0119	0.12821283507806785	1.4634591432565467	0.0008	-0.08881868341878872	1.6411783371086068	0.0655	-0.05042206023875792	1.4881998405029762	0.1076	0.01402683871301308	1.3662285209705742	-0.01275	-0.24886679623652952	1.3491582634196513	0.0702	-0.35638461876916605	1.611815846135411	0.1076	0.29800639595126704	1.515424266379988	-0.01275	0.32124815735216505	1.6853295813691342	0.0702	0.03813910805962377	1.8687534439719362	0.1076
204	3.4	0.4432809607333075	0.9240286290602794	0.0301	0.37295059019630233	0.8599289233941646	0.0301	0.55481278094723	0.4895448081850714	0.129	0.7282964933570434	0.1686594198158618	0.023	0.693241707557804	0.010206147188576811	0.2179	0.6531952642345997	0.025940099816574497	0.1804	0.783473123511849	0.15551556073373016	-0.0119	0.548015161801077	0.9388316021886912	0.0301	0.7244222494264894	0.5442493483687472	0.129	0.910593582999628	0.1853419201482433	0.023	0.8559173954811626	0.012769376154555805	0.2179	0.9229371197027343	0.0375267092830402	0.1804	0.9555492929671923	0.16062805701757288	-0.0119	0.1373830812000679	1.4416218291386316	0.0008	-0.08185177085717879	1.6186782307207628	0.0655	-0.04210086003763471	1.4663725272947077	0.1076	0.025894295228368076	1.3449823247409858	-0.01275	-0.23594291787476196	1.3196801218646623	0.0702	-0.3421093184686955	1.5783308922222645	0.1076	0.3071011035003058	1.4917521183278852	-0.01275	0.342461636093744	1.6429573246934173	0.0702	0.054022045458555365	1.8231793255776627	0.1076
